<svg width="30" height="30" viewBox="0 0 30 30" fill="none" xmlns="http://www.w3.org/2000/svg">
<path d="M15.0314 0.201358C18.6976 0.258679 22.3634 0.316882 26.0288 0.375966C26.4269 0.38258 26.825 0.413005 27.2197 0.459302C28.8484 0.64846 30.0517 2.30061 29.9983 4.26097C29.946 6.17901 28.6437 7.76899 27.0081 7.75973C23.6699 7.73989 20.3305 7.64465 16.9912 7.58513C15.9118 7.56661 14.8301 7.54544 13.7519 7.56528C13.5001 7.57025 13.2565 7.67095 13.0586 7.85201C12.8606 8.03306 12.719 8.28451 12.6554 8.56795C12.5144 9.105 12.6554 9.75846 13.0706 10.0667C13.3453 10.2621 13.6587 10.3719 13.9805 10.3855C17.4188 10.4701 20.8571 10.527 24.2954 10.5918C24.8357 10.6024 25.376 10.5918 25.9151 10.6275C27.0525 10.6897 27.5563 11.7664 26.8932 12.8273C26.0254 14.2149 25.0996 15.5549 24.1533 16.8724C23.904 17.2186 23.5899 17.494 23.2351 17.6774C22.8802 17.8608 22.494 17.9474 22.106 17.9306C19.0521 17.883 15.9925 17.9108 12.9455 17.6991C10.3079 17.5166 8.39594 15.8155 7.11865 13.1593C6.34864 11.572 6.09501 9.85237 6.25765 8.04413C6.2986 7.59306 6.19396 7.42771 5.78791 7.43168C4.87801 7.43962 3.9681 7.41449 3.05819 7.36554C1.24747 7.2703 -0.0389095 5.6618 0.000898932 3.57181C0.0407074 1.54927 1.42377 -0.0248361 3.21401 0.000296792C7.1505 0.0452714 11.0859 0.132574 15.0223 0.193422L15.0314 0.201358Z" fill="#3B82F6"/>
<path d="M20.4864 25.2231C20.4864 27.9533 18.7167 29.9996 16.3611 30.0036C15.8172 30.0093 15.2777 29.8888 14.7743 29.6493C14.2708 29.4098 13.8134 29.056 13.4289 28.6086C13.0443 28.1612 12.7402 27.6292 12.5344 27.0436C12.3286 26.458 12.2251 25.8305 12.2302 25.1979C12.2302 22.7243 13.9362 20.3711 16.3827 20.4227C18.7428 20.469 20.4887 22.481 20.4864 25.2231Z" fill="#3B82F6"/>
</svg>
